<svg width="490" height="614" viewBox="0 0 490 614" fill="none" xmlns="http://www.w3.org/2000/svg">
<path d="M1.5 58.7578L78.4931 2H78.8889H79.7742H80.656H81.5343H82.4091H83.2805H84.1484H85.0129H85.874H86.7316H87.5859H88.4368H89.2843H90.1285H90.9694H91.807H92.6412H93.4722H94.2999H95.1244H95.9457H96.7637H97.5785H98.3902H99.1986H100.004H100.806H101.605H102.401H103.194H103.984H104.77H105.554H106.335H107.112H107.887H108.659H109.427H110.193H110.956H111.716H112.473H113.227H113.978H114.726H115.472H116.215H116.954H117.692H118.426H119.157H119.886H120.612H121.336H122.056H122.774H123.489H124.202H124.912H125.619H126.324H127.026H127.726H128.423H129.117H129.809H130.499H131.186H131.87H132.552H133.232H133.909H134.583H135.256H135.925H136.593H137.258H137.921H138.581H139.24H139.895H140.549H141.2H141.849H142.496H143.141H143.783H144.423H145.062H145.697H146.331H146.963H147.592H148.22H148.845H149.468H150.09H150.709H151.326H151.941H152.555H153.166H153.775H154.382H154.988H155.591H156.193H156.793H157.391H157.987H158.581H159.173H159.764H160.353H160.94H161.525H162.109H162.691H163.271H163.85H164.426H165.001H165.575H166.147H166.717H167.286H167.853H168.419H168.983H169.545H170.106H170.665H171.223H171.78H172.335H172.889H173.441H173.992H174.541H175.089H175.636H176.181H176.725H177.268H177.809H178.349H178.888H179.425H179.962H180.497H181.031H181.564H182.095H182.626H183.155H183.683H184.21H184.736H185.261H185.785H186.307H186.829H187.35H187.869H188.388H188.906H189.423H189.938H190.453H190.967H191.481H191.993H192.504H193.015H193.524H194.033H194.541H195.049H195.555H196.061H196.566H197.07H197.574H198.077H198.579H199.081H199.582H200.082H200.582H201.081H201.58H202.078H202.575H203.072H203.569H204.064H204.56H205.055H205.549H206.043H206.537H207.03H207.523H208.016H208.508H208.999H209.491H209.982H210.473H210.963H211.453H211.943H212.433H212.923H213.412H213.901H214.39H214.879H215.368H215.856H216.345H216.833H217.321H217.81H218.298H218.786H219.274H219.762H220.25H220.738H221.226H221.715H222.203H222.691H223.18H223.669H224.157H224.646H225.135H225.625H226.114H226.604H227.094H227.584H228.074H228.565H229.056H229.547H230.039H230.531H231.023H231.516H232.009H232.503H232.997H233.491H233.986H234.481H234.977H235.473H235.97H236.467H236.965H237.464H237.963H238.462H238.962H239.463H239.965H240.467H240.97H241.473H241.977H242.482H242.988H243.494H244.001H244.509H245.018H245.527H246.037H246.549H247.061H247.573H248.087H248.602H249.117H249.634H250.151H250.67H251.189H251.71H252.231H252.754H253.277H253.802H254.327H254.854H255.382H255.911H256.441H256.972H257.505H258.038H258.573H259.109H259.646H260.185H260.724H261.265H261.808H262.351H262.896H263.443H263.99H264.539H265.09H265.642H266.195H266.749H267.306H267.863H268.422H268.983H269.545H270.108H270.673H271.24H271.808H272.378H272.95H273.523H274.098H274.674H275.252H275.832H276.413H276.996H277.581H278.168H278.756H279.346H279.938H280.532H281.127H281.725H282.324H282.925H283.528H284.133H284.74H285.349H285.959H286.572H287.187H287.803H288.422H289.043H289.665H290.29H290.917H291.546H292.177H292.81H293.446H294.083H294.723H295.365H296.009H296.655H297.303H297.954H298.607H299.262H299.92H300.58H301.242H301.906H302.573H303.242H303.914H304.588H305.264H305.943H306.624H307.308H307.995H308.683H309.375H310.068H310.765H311.463H312.165H312.869H313.576H314.285H314.997H315.711H316.429H317.148H317.871H318.596H319.324H320.055H320.789H321.525H322.264H323.006H323.751H324.498H325.249H326.002H326.758H327.517H328.279H329.044H329.812H330.583H331.357H332.134H332.913H333.696H334.482H335.271H336.063H336.858H337.656H338.458H339.262H340.07H340.881H341.694H342.512H343.332H344.156H344.982H345.813H346.646H347.483H348.323H349.166H350.012H350.862H351.716H352.573H353.433H354.296H355.163H356.034H356.907H357.785H358.666H359.55H360.438H361.329H362.224H363.123H364.025H364.931H365.84H366.753H367.67H368.59H369.514H370.442H371.373H372.308H373.247H374.19H375.136H376.086H377.04H377.998H378.96H379.925H380.895H381.868H382.845H383.826H384.811H385.8H386.793H387.79H388.791H389.796H390.805H391.818H392.835H393.856H394.881H395.91H396.944H397.981H399.023H400.069H401.119H402.173H403.231H404.294H405.361H406.432H407.507H408.587H409.671H410.759H411.852H412.949H414.05H415.156H416.266H417.381H417.972L488.5 58.7186V556.77L417.983 612H78.4728L38.8898 584.292L38.8602 584.271L1.5 556.742V58.7578Z" fill="white" stroke="black" stroke-width="3"/>
</svg>
