<svg width="380" height="123" viewBox="0 0 380 123" fill="none" xmlns="http://www.w3.org/2000/svg">
<path d="M0.5 5.6715C0.5 5.6715 10.6067 -5.4942 24.1875 5.6715C37.7683 16.8372 47.875 5.6715 47.875 5.6715C47.875 5.6715 59.245 -5.49425 71.5625 5.6715C83.88 16.8372 95.25 5.6715 95.25 5.6715C95.25 5.6715 106.62 -5.49426 118.938 5.6715C131.255 16.8373 142.625 5.6715 142.625 5.6715C142.625 5.6715 152.1 -4.69672 166.312 5.6715C180.525 16.0397 190 5.6715 190 5.6715C190 5.6715 199.475 -3.10162 213.688 5.6715C227.9 14.4446 237.375 5.6715 237.375 5.6715C237.375 5.6715 246.85 -5.49427 261.062 5.6715C275.275 16.8373 284.75 5.6715 284.75 5.6715C284.75 5.6715 292.33 -7.08937 308.438 5.6715C324.545 18.4324 332.125 5.6715 332.125 5.6715C332.125 5.6715 340.968 -5.49426 355.812 5.6715C370.657 16.8373 379.5 5.6715 379.5 5.6715V117.329C379.5 117.329 371.92 128.494 355.812 117.329C339.705 106.163 332.125 117.329 332.125 117.329C332.125 117.329 324.545 128.494 308.438 117.329C292.33 106.163 284.75 117.329 284.75 117.329C284.75 117.329 276.538 126.102 261.062 117.329C245.587 108.555 237.375 117.329 237.375 117.329C237.375 117.329 227.9 126.899 213.688 117.329C199.475 107.758 190 117.329 190 117.329C190 117.329 177.998 128.494 166.312 117.329C154.627 106.163 142.625 117.329 142.625 117.329C142.625 117.329 135.677 130.089 118.938 117.329C102.198 104.568 95.25 117.329 95.25 117.329C95.25 117.329 87.0383 128.494 71.5625 117.329C56.0867 106.163 47.875 117.329 47.875 117.329C47.875 117.329 39.6633 130.089 24.1875 117.329C8.71167 104.568 0.5 117.329 0.5 117.329V5.6715Z" fill="black"/>
</svg>
