<svg width="333" height="186" viewBox="0 0 333 186" fill="none" xmlns="http://www.w3.org/2000/svg">
<g clip-path="url(#clip0_18_98)">
<path fill-rule="evenodd" clip-rule="evenodd" d="M247.872 3.74414C292.814 3.74414 329.245 40.0722 329.245 84.8851C329.245 129.699 292.814 166.026 247.872 166.026H85.128C78.1322 166.026 71.3425 165.146 64.8644 163.491L49.962 176.819L50.4667 158.318C22.8607 145.339 3.75586 117.337 3.75586 84.8851C3.75586 40.0722 40.1874 3.74414 85.128 3.74414H247.872Z" fill="#FFE845"/>
<mask id="mask0_18_98" style="mask-type:luminance" maskUnits="userSpaceOnUse" x="0" y="0" width="333" height="186">
<path d="M333 0H0V186H333V0Z" fill="white"/>
<path fill-rule="evenodd" clip-rule="evenodd" d="M248.003 4C292.945 4 329.375 40.328 329.375 85.1409C329.375 129.954 292.945 166.282 248.003 166.282H85.2589C78.263 166.282 71.4733 165.402 64.9952 163.747L50.0928 177.075L50.5976 158.573C22.9915 145.595 3.88672 117.592 3.88672 85.1409C3.88672 40.328 40.3183 4 85.2589 4H248.003Z" fill="black"/>
</mask>
<g mask="url(#mask0_18_98)">
<path d="M64.8641 163.492L65.7965 159.863L63.8512 159.366L62.3564 160.703L64.8641 163.492ZM49.9618 176.82L46.2075 176.719L45.9701 185.421L52.4695 179.607L49.9618 176.82ZM50.4665 158.318L54.2208 158.421L54.2875 155.975L52.0682 154.932L50.4665 158.318ZM333 84.8859C333 38.0047 294.887 0 247.872 0V7.48993C290.739 7.48993 325.489 42.1412 325.489 84.8859H333ZM247.872 169.772C294.887 169.772 333 131.767 333 84.8859H325.489C325.489 127.631 290.739 162.282 247.872 162.282V169.772ZM85.1278 169.772H247.872V162.282H85.1278V169.772ZM63.9317 167.119C70.7119 168.852 77.8148 169.772 85.1278 169.772V162.282C78.449 162.282 71.9726 161.442 65.7965 159.863L63.9317 167.119ZM52.4695 179.607L67.3719 166.279L62.3564 160.703L47.4541 174.032L52.4695 179.607ZM46.7123 158.217L46.2075 176.719L53.716 176.922L54.2208 158.421L46.7123 158.217ZM0 84.8859C0 118.841 19.9933 148.132 48.8649 161.706L52.0682 154.932C25.7276 142.547 7.51128 115.834 7.51128 84.8859H0ZM85.1278 0C38.113 0 0 38.0047 0 84.8859H7.51128C7.51128 42.1412 42.2613 7.48993 85.1278 7.48993V0ZM247.872 0H85.1278V7.48993H247.872V0Z" fill="black"/>
</g>
</g>
<defs>
<clipPath id="clip0_18_98">
<rect width="333" height="186" fill="white"/>
</clipPath>
</defs>
</svg>
