<svg width="409" height="213" viewBox="0 0 409 213" fill="none" xmlns="http://www.w3.org/2000/svg">
<g clip-path="url(#clip0_926_298)">
<path fill-rule="evenodd" clip-rule="evenodd" d="M104.556 4.28906C49.3578 4.28906 4.61223 45.8905 4.61223 97.2085C4.61223 148.527 49.3578 190.128 104.556 190.128H304.443C313.036 190.128 321.375 189.12 329.332 187.225L347.635 202.488L347.015 181.301C380.922 166.438 404.387 134.371 404.387 97.2085C404.387 45.8905 359.64 4.28906 304.443 4.28906H104.556Z" fill="#FFE845"/>
<mask id="mask0_926_298" style="mask-type:luminance" maskUnits="userSpaceOnUse" x="0" y="0" width="409" height="213">
<path d="M0 0H409V213H0V0Z" fill="white"/>
<path fill-rule="evenodd" clip-rule="evenodd" d="M104.396 4.58008C49.1976 4.58008 4.45207 46.1816 4.45207 97.4995C4.45207 148.818 49.1976 190.419 104.396 190.419H304.283C312.875 190.419 321.215 189.411 329.171 187.516L347.475 202.779L346.855 181.592C380.761 166.729 404.227 134.662 404.227 97.4995C404.227 46.1816 359.48 4.58008 304.283 4.58008H104.396Z" fill="black"/>
</mask>
<g mask="url(#mask0_926_298)">
<path d="M329.332 187.224L328.187 183.068L330.576 182.5L332.412 184.031L329.332 187.224ZM347.636 202.487L352.247 202.371L352.538 212.337L344.555 205.679L347.636 202.487ZM347.016 181.3L342.404 181.417L342.323 178.617L345.048 177.422L347.016 181.3ZM6.4373e-06 97.2081C6.4373e-06 43.5215 46.8121 0 104.556 0V8.57718C51.9061 8.57718 9.22557 48.2585 9.22557 97.2081H6.4373e-06ZM104.556 194.416C46.8121 194.416 6.4373e-06 150.894 6.4373e-06 97.2081H9.22557C9.22557 146.158 51.9061 185.839 104.556 185.839V194.416ZM304.444 194.416H104.556V185.839H304.444V194.416ZM330.477 191.378C322.15 193.363 313.426 194.416 304.444 194.416V185.839C312.647 185.839 320.601 184.877 328.187 183.068L330.477 191.378ZM344.555 205.679L326.252 190.416L332.412 184.031L350.716 199.295L344.555 205.679ZM351.627 181.184L352.247 202.371L343.024 202.604L342.404 181.417L351.627 181.184ZM409 97.2081C409 136.092 384.444 169.635 348.983 185.18L345.048 177.422C377.401 163.239 399.774 132.649 399.774 97.2081H409ZM304.444 0C362.189 0 409 43.5215 409 97.2081H399.774C399.774 48.2585 357.093 8.57718 304.444 8.57718V0ZM104.556 0H304.444V8.57718H104.556V0Z" fill="black"/>
</g>
</g>
<defs>
<clipPath id="clip0_926_298">
<rect width="409" height="213" fill="white" transform="matrix(-1 0 0 1 409 0)"/>
</clipPath>
</defs>
</svg>
