<svg width="457" height="200" viewBox="0 0 457 200" fill="none" xmlns="http://www.w3.org/2000/svg">
<g clip-path="url(#clip0_926_306)">
<path fill-rule="evenodd" clip-rule="evenodd" d="M340.173 4.02734C401.849 4.02734 451.846 43.0898 451.846 91.2757C451.846 139.462 401.849 178.524 340.173 178.524H116.827C107.226 178.524 97.9083 177.578 89.0179 175.798L68.5663 190.129L69.259 170.235C31.3732 156.28 5.1543 126.17 5.1543 91.2757C5.1543 43.0898 55.152 4.02734 116.827 4.02734H340.173Z" fill="#FFE845"/>
<mask id="mask0_926_306" style="mask-type:luminance" maskUnits="userSpaceOnUse" x="0" y="0" width="457" height="200">
<path d="M457 0H0V200H457V0Z" fill="white"/>
<path fill-rule="evenodd" clip-rule="evenodd" d="M340.353 4.30078C402.029 4.30078 452.026 43.3632 452.026 91.5491C452.026 139.736 402.029 178.797 340.353 178.797H117.007C107.406 178.797 98.088 177.851 89.1976 176.071L68.746 190.403L69.4387 170.509C31.5529 156.553 5.33398 126.443 5.33398 91.5491C5.33398 43.3632 55.3317 4.30078 117.007 4.30078H340.353Z" fill="black"/>
</mask>
<g mask="url(#mask0_926_306)">
<path d="M89.0178 175.797L90.2974 171.895L87.6277 171.361L85.5762 172.799L89.0178 175.797ZM68.5662 190.129L63.4139 190.02L63.0882 199.377L72.0077 193.126L68.5662 190.129ZM69.2589 170.235L74.4111 170.345L74.5027 167.715L71.4569 166.593L69.2589 170.235ZM457 91.2752C457 40.8652 404.694 0 340.173 0V8.05369C399.002 8.05369 446.692 45.3132 446.692 91.2752H457ZM340.173 182.55C404.694 182.55 457 141.685 457 91.2752H446.692C446.692 137.238 399.002 174.497 340.173 174.497V182.55ZM116.827 182.55H340.173V174.497H116.827V182.55ZM87.7382 179.698C97.0431 181.561 106.791 182.55 116.827 182.55V174.497C107.661 174.497 98.7732 173.593 90.2974 171.895L87.7382 179.698ZM72.0077 193.126L92.4593 178.795L85.5762 172.799L65.1247 187.132L72.0077 193.126ZM64.1066 170.126L63.4139 190.02L73.7184 190.239L74.4111 170.345L64.1066 170.126ZM0 91.2752C0 127.786 27.4382 159.282 67.0608 173.878L71.4569 166.593C35.3079 153.277 10.3083 124.553 10.3083 91.2752H0ZM116.827 0C52.3052 0 0 40.8652 0 91.2752H10.3083C10.3083 45.3132 57.9983 8.05369 116.827 8.05369V0ZM340.173 0H116.827V8.05369H340.173V0Z" fill="black"/>
</g>
</g>
<defs>
<clipPath id="clip0_926_306">
<rect width="457" height="200" fill="white"/>
</clipPath>
</defs>
</svg>
