<svg width="248" height="94" viewBox="0 0 248 94" fill="none" xmlns="http://www.w3.org/2000/svg">
<path d="M1.5 26.5615L23.3218 1.5H224.174L246.5 26.5711V72.3354L224.268 92.5H23.2276L1.5 72.3454V26.5615Z" fill="#FBFAF2" stroke="black" stroke-width="3"/>
<path d="M101.5 23.75V65H97.75V35H94V27.5H97.75V23.75H101.5ZM67.75 65V23.75H71.5V27.5H75.25V35H71.5V65H67.75ZM75.25 46.25V35H79V46.25H75.25ZM82.75 57.5H86.5V65H82.75V57.5ZM82.75 46.25V57.5H79V46.25H82.75ZM90.25 57.5H86.5V46.25H90.25V57.5ZM90.25 46.25V35H94V46.25H90.25ZM105.235 65V53.75H108.985V65H105.235ZM108.985 53.75V38.75H112.735V50H123.985V38.75H127.735V53.75H108.985ZM116.485 23.75H120.235V27.5H116.485V23.75ZM112.735 38.75V27.5H116.485V38.75H112.735ZM120.235 38.75V27.5H123.985V38.75H120.235ZM127.735 65V53.75H131.485V65H127.735ZM135.25 65V61.25H139V27.5H135.25V23.75H146.5V27.5H142.75V61.25H146.5V65H135.25ZM150.235 65V23.75H153.985V27.5H157.735V35H153.985V65H150.235ZM157.735 42.5V35H161.485V42.5H157.735ZM161.485 46.25V42.5H165.235V46.25H161.485ZM165.235 46.25H168.985V53.75H165.235V46.25ZM168.985 61.25V53.75H172.735V23.75H176.485V65H172.735V61.25H168.985Z" fill="black"/>
</svg>
